# xmcd
#
# Track frame offsets: 
#        150
#        22611
#        43248
#        60697
#        80041
#        104309
#        126722
#        163202
#        181644
#
# Disc length: 2787 seconds
#
# Revision: 0
# Processed by: cddbd v1.5.2PL0 Copyright (c) Steve Scherf et al.
# Submitted via: ExactAudioCopy v0.95b4
#
DISCID=750ae109
DTITLE=Clyde Hopkins - Cross Country
DYEAR=2006
DGENRE=Blues
TTITLE0=Cross Country
TTITLE1=Come Back Baby
TTITLE2=The Blues Will Do
TTITLE3=You're The One I Wanna See
TTITLE4=My Baby Left
TTITLE5=I Wanna Talk To You
TTITLE6=She's Leaving
TTITLE7=That's Alright Baby
TTITLE8=Gone This Time
EXTD=
EXTT0=
EXTT1=
EXTT2=
EXTT3=
EXTT4=
EXTT5=
EXTT6=
EXTT7=
EXTT8=
PLAYORDER=
